<svg width="54" height="54" viewBox="0 0 54 54" fill="none" xmlns="http://www.w3.org/2000/svg">
<path d="M47.25 24.75C46.6533 24.75 46.081 24.9871 45.659 25.409C45.2371 25.831 45 26.4033 45 27C45.0268 31.2143 43.5832 35.3061 40.9177 38.5705C38.2523 41.835 34.5319 44.0678 30.3974 44.8844C26.2629 45.701 21.973 45.0502 18.2666 43.0443C14.5603 41.0383 11.6694 37.8026 10.092 33.8946C8.51455 29.9865 8.34929 25.6507 9.62465 21.6339C10.9 17.6171 13.5362 14.1708 17.0791 11.8885C20.622 9.6062 24.8499 8.6308 29.0346 9.1303C33.2193 9.6298 37.0988 11.5729 40.005 14.625H34.605C34.0083 14.625 33.436 14.8621 33.014 15.284C32.5921 15.706 32.355 16.2783 32.355 16.875C32.355 17.4717 32.5921 18.044 33.014 18.466C33.436 18.8879 34.0083 19.125 34.605 19.125H44.7975C45.3942 19.125 45.9665 18.8879 46.3885 18.466C46.8105 18.044 47.0475 17.4717 47.0475 16.875V6.75C47.0475 6.15326 46.8105 5.58097 46.3885 5.15901C45.9665 4.73705 45.3942 4.5 44.7975 4.5C44.2008 4.5 43.6285 4.73705 43.2065 5.15901C42.7846 5.58097 42.5475 6.15326 42.5475 6.75V10.7325C38.8005 7.15063 33.9317 4.97239 28.764 4.56599C23.5964 4.15959 18.4469 5.54995 14.1861 8.50205C9.92523 11.4542 6.81438 15.7869 5.37937 20.7679C3.94436 25.7489 4.27323 31.0727 6.31037 35.8392C8.34752 40.6057 11.968 44.5227 16.5598 46.9279C21.1516 49.3331 26.433 50.0792 31.5113 49.0398C36.5897 48.0005 41.1534 45.2396 44.4311 41.2238C47.7087 37.208 49.4993 32.1836 49.5 27C49.5 26.4033 49.263 25.831 48.841 25.409C48.419 24.9871 47.8467 24.75 47.25 24.75Z" fill="white"/>
</svg>
